ISO-10303-21;
HEADER;
/* Generated by software containing ST-Developer
 * from STEP Tools, Inc. (www.steptools.com) 
 */

FILE_DESCRIPTION(
/* description */ (''),
/* implementation_level */ '2;1');

FILE_NAME(
/* name */ 'PANEL.step',
/* time_stamp */ '2026-09-28T19:06:31+05:30',
/* author */ (''),
/* organization */ (''),
/* preprocessor_version */ 'ST-DEVELOPER v20.2',
/* originating_system */ 'Autodesk Translation Framework v15.15.0.0',
/* authorisation */ '');

FILE_SCHEMA (('AUTOMOTIVE_DESIGN { 1 0 10303 214 3 1 1 }'));
ENDSEC;

DATA;
#10=MECHANICAL_DESIGN_GEOMETRIC_PRESENTATION_REPRESENTATION('',(#13),#1311);
#11=SHAPE_REPRESENTATION_RELATIONSHIP('SRR','None',#1318,#12);
#12=ADVANCED_BREP_SHAPE_REPRESENTATION('',(#14),#1310);
#13=STYLED_ITEM('',(#1328),#14);
#14=MANIFOLD_SOLID_BREP('PANEL',#779);
#15=FACE_BOUND('',#162,.T.);
#16=FACE_BOUND('',#164,.T.);
#17=FACE_BOUND('',#166,.T.);
#18=FACE_BOUND('',#168,.T.);
#19=FACE_BOUND('',#171,.T.);
#20=FACE_BOUND('',#172,.T.);
#21=FACE_BOUND('',#173,.T.);
#22=FACE_BOUND('',#174,.T.);
#23=FACE_BOUND('',#175,.T.);
#24=FACE_BOUND('',#176,.T.);
#25=FACE_BOUND('',#177,.T.);
#26=FACE_BOUND('',#178,.T.);
#27=CYLINDRICAL_SURFACE('',#816,0.750000000000002);
#28=CYLINDRICAL_SURFACE('',#822,0.749999999999993);
#29=CYLINDRICAL_SURFACE('',#828,0.749999999999993);
#30=CYLINDRICAL_SURFACE('',#834,0.749999999999993);
#31=CYLINDRICAL_SURFACE('',#840,0.750000000000002);
#32=CYLINDRICAL_SURFACE('',#846,0.75);
#33=CYLINDRICAL_SURFACE('',#852,0.75);
#34=CYLINDRICAL_SURFACE('',#858,0.75);
#35=CIRCLE('',#814,0.0400000000000045);
#36=CIRCLE('',#815,0.750000000000002);
#37=CIRCLE('',#817,0.750000000000002);
#38=CIRCLE('',#820,0.0399999999999956);
#39=CIRCLE('',#821,0.749999999999993);
#40=CIRCLE('',#823,0.749999999999993);
#41=CIRCLE('',#826,0.0399999999999956);
#42=CIRCLE('',#827,0.749999999999993);
#43=CIRCLE('',#829,0.749999999999993);
#44=CIRCLE('',#832,0.0399999999999956);
#45=CIRCLE('',#833,0.749999999999993);
#46=CIRCLE('',#835,0.749999999999993);
#47=CIRCLE('',#838,0.0400000000000045);
#48=CIRCLE('',#839,0.750000000000002);
#49=CIRCLE('',#841,0.750000000000002);
#50=CIRCLE('',#844,0.04);
#51=CIRCLE('',#845,0.75);
#52=CIRCLE('',#847,0.75);
#53=CIRCLE('',#850,0.04);
#54=CIRCLE('',#851,0.75);
#55=CIRCLE('',#853,0.75);
#56=CIRCLE('',#856,0.04);
#57=CIRCLE('',#857,0.75);
#58=CIRCLE('',#859,0.75);
#59=CONICAL_SURFACE('',#813,0.395000000000003,0.534269516306659);
#60=CONICAL_SURFACE('',#819,0.394999999999994,0.534269516306659);
#61=CONICAL_SURFACE('',#825,0.394999999999994,0.534269516306659);
#62=CONICAL_SURFACE('',#831,0.394999999999994,0.534269516306659);
#63=CONICAL_SURFACE('',#837,0.395000000000003,0.534269516306659);
#64=CONICAL_SURFACE('',#843,0.395,0.53426951630666);
#65=CONICAL_SURFACE('',#849,0.395,0.53426951630666);
#66=CONICAL_SURFACE('',#855,0.395,0.53426951630666);
#67=FACE_OUTER_BOUND('',#117,.T.);
#68=FACE_OUTER_BOUND('',#118,.T.);
#69=FACE_OUTER_BOUND('',#119,.T.);
#70=FACE_OUTER_BOUND('',#120,.T.);
#71=FACE_OUTER_BOUND('',#121,.T.);
#72=FACE_OUTER_BOUND('',#122,.T.);
#73=FACE_OUTER_BOUND('',#123,.T.);
#74=FACE_OUTER_BOUND('',#124,.T.);
#75=FACE_OUTER_BOUND('',#125,.T.);
#76=FACE_OUTER_BOUND('',#126,.T.);
#77=FACE_OUTER_BOUND('',#127,.T.);
#78=FACE_OUTER_BOUND('',#128,.T.);
#79=FACE_OUTER_BOUND('',#129,.T.);
#80=FACE_OUTER_BOUND('',#130,.T.);
#81=FACE_OUTER_BOUND('',#131,.T.);
#82=FACE_OUTER_BOUND('',#132,.T.);
#83=FACE_OUTER_BOUND('',#133,.T.);
#84=FACE_OUTER_BOUND('',#134,.T.);
#85=FACE_OUTER_BOUND('',#135,.T.);
#86=FACE_OUTER_BOUND('',#136,.T.);
#87=FACE_OUTER_BOUND('',#137,.T.);
#88=FACE_OUTER_BOUND('',#138,.T.);
#89=FACE_OUTER_BOUND('',#139,.T.);
#90=FACE_OUTER_BOUND('',#140,.T.);
#91=FACE_OUTER_BOUND('',#141,.T.);
#92=FACE_OUTER_BOUND('',#142,.T.);
#93=FACE_OUTER_BOUND('',#143,.T.);
#94=FACE_OUTER_BOUND('',#144,.T.);
#95=FACE_OUTER_BOUND('',#145,.T.);
#96=FACE_OUTER_BOUND('',#146,.T.);
#97=FACE_OUTER_BOUND('',#147,.T.);
#98=FACE_OUTER_BOUND('',#148,.T.);
#99=FACE_OUTER_BOUND('',#149,.T.);
#100=FACE_OUTER_BOUND('',#150,.T.);
#101=FACE_OUTER_BOUND('',#151,.T.);
#102=FACE_OUTER_BOUND('',#152,.T.);
#103=FACE_OUTER_BOUND('',#153,.T.);
#104=FACE_OUTER_BOUND('',#154,.T.);
#105=FACE_OUTER_BOUND('',#155,.T.);
#106=FACE_OUTER_BOUND('',#156,.T.);
#107=FACE_OUTER_BOUND('',#157,.T.);
#108=FACE_OUTER_BOUND('',#158,.T.);
#109=FACE_OUTER_BOUND('',#159,.T.);
#110=FACE_OUTER_BOUND('',#160,.T.);
#111=FACE_OUTER_BOUND('',#161,.T.);
#112=FACE_OUTER_BOUND('',#163,.T.);
#113=FACE_OUTER_BOUND('',#165,.T.);
#114=FACE_OUTER_BOUND('',#167,.T.);
#115=FACE_OUTER_BOUND('',#169,.T.);
#116=FACE_OUTER_BOUND('',#170,.T.);
#117=EDGE_LOOP('',(#495,#496,#497,#498));
#118=EDGE_LOOP('',(#499,#500,#501,#502));
#119=EDGE_LOOP('',(#503,#504,#505,#506));
#120=EDGE_LOOP('',(#507,#508,#509,#510));
#121=EDGE_LOOP('',(#511,#512,#513,#514));
#122=EDGE_LOOP('',(#515,#516,#517,#518));
#123=EDGE_LOOP('',(#519,#520,#521,#522));
#124=EDGE_LOOP('',(#523,#524,#525,#526));
#125=EDGE_LOOP('',(#527,#528,#529,#530));
#126=EDGE_LOOP('',(#531,#532,#533,#534));
#127=EDGE_LOOP('',(#535,#536,#537,#538));
#128=EDGE_LOOP('',(#539,#540,#541,#542));
#129=EDGE_LOOP('',(#543,#544,#545,#546));
#130=EDGE_LOOP('',(#547,#548,#549,#550));
#131=EDGE_LOOP('',(#551,#552,#553,#554));
#132=EDGE_LOOP('',(#555,#556,#557,#558));
#133=EDGE_LOOP('',(#559,#560,#561,#562));
#134=EDGE_LOOP('',(#563,#564,#565,#566));
#135=EDGE_LOOP('',(#567,#568,#569,#570));
#136=EDGE_LOOP('',(#571,#572,#573,#574));
#137=EDGE_LOOP('',(#575,#576,#577,#578));
#138=EDGE_LOOP('',(#579,#580,#581,#582));
#139=EDGE_LOOP('',(#583));
#140=EDGE_LOOP('',(#584,#585,#586,#587));
#141=EDGE_LOOP('',(#588,#589,#590,#591));
#142=EDGE_LOOP('',(#592));
#143=EDGE_LOOP('',(#593,#594,#595,#596));
#144=EDGE_LOOP('',(#597,#598,#599,#600));
#145=EDGE_LOOP('',(#601));
#146=EDGE_LOOP('',(#602,#603,#604,#605));
#147=EDGE_LOOP('',(#606,#607,#608,#609));
#148=EDGE_LOOP('',(#610));
#149=EDGE_LOOP('',(#611,#612,#613,#614));
#150=EDGE_LOOP('',(#615,#616,#617,#618));
#151=EDGE_LOOP('',(#619));
#152=EDGE_LOOP('',(#620,#621,#622,#623));
#153=EDGE_LOOP('',(#624,#625,#626,#627));
#154=EDGE_LOOP('',(#628));
#155=EDGE_LOOP('',(#629,#630,#631,#632));
#156=EDGE_LOOP('',(#633,#634,#635,#636));
#157=EDGE_LOOP('',(#637));
#158=EDGE_LOOP('',(#638,#639,#640,#641));
#159=EDGE_LOOP('',(#642,#643,#644,#645));
#160=EDGE_LOOP('',(#646));
#161=EDGE_LOOP('',(#647,#648,#649,#650));
#162=EDGE_LOOP('',(#651,#652,#653,#654));
#163=EDGE_LOOP('',(#655,#656,#657,#658));
#164=EDGE_LOOP('',(#659,#660,#661,#662));
#165=EDGE_LOOP('',(#663,#664,#665,#666));
#166=EDGE_LOOP('',(#667,#668,#669,#670));
#167=EDGE_LOOP('',(#671,#672,#673,#674));
#168=EDGE_LOOP('',(#675,#676,#677,#678));
#169=EDGE_LOOP('',(#679,#680,#681,#682));
#170=EDGE_LOOP('',(#683,#684,#685,#686));
#171=EDGE_LOOP('',(#687));
#172=EDGE_LOOP('',(#688));
#173=EDGE_LOOP('',(#689));
#174=EDGE_LOOP('',(#690));
#175=EDGE_LOOP('',(#691));
#176=EDGE_LOOP('',(#692));
#177=EDGE_LOOP('',(#693));
#178=EDGE_LOOP('',(#694));
#179=LINE('',#1097,#255);
#180=LINE('',#1099,#256);
#181=LINE('',#1101,#257);
#182=LINE('',#1102,#258);
#183=LINE('',#1105,#259);
#184=LINE('',#1107,#260);
#185=LINE('',#1108,#261);
#186=LINE('',#1111,#262);
#187=LINE('',#1113,#263);
#188=LINE('',#1114,#264);
#189=LINE('',#1116,#265);
#190=LINE('',#1117,#266);
#191=LINE('',#1122,#267);
#192=LINE('',#1124,#268);
#193=LINE('',#1126,#269);
#194=LINE('',#1127,#270);
#195=LINE('',#1130,#271);
#196=LINE('',#1132,#272);
#197=LINE('',#1133,#273);
#198=LINE('',#1136,#274);
#199=LINE('',#1138,#275);
#200=LINE('',#1139,#276);
#201=LINE('',#1141,#277);
#202=LINE('',#1142,#278);
#203=LINE('',#1147,#279);
#204=LINE('',#1149,#280);
#205=LINE('',#1151,#281);
#206=LINE('',#1152,#282);
#207=LINE('',#1155,#283);
#208=LINE('',#1157,#284);
#209=LINE('',#1158,#285);
#210=LINE('',#1161,#286);
#211=LINE('',#1163,#287);
#212=LINE('',#1164,#288);
#213=LINE('',#1166,#289);
#214=LINE('',#1167,#290);
#215=LINE('',#1172,#291);
#216=LINE('',#1174,#292);
#217=LINE('',#1176,#293);
#218=LINE('',#1177,#294);
#219=LINE('',#1180,#295);
#220=LINE('',#1182,#296);
#221=LINE('',#1183,#297);
#222=LINE('',#1186,#298);
#223=LINE('',#1188,#299);
#224=LINE('',#1189,#300);
#225=LINE('',#1191,#301);
#226=LINE('',#1192,#302);
#227=LINE('',#1198,#303);
#228=LINE('',#1202,#304);
#229=LINE('',#1209,#305);
#230=LINE('',#1213,#306);
#231=LINE('',#1220,#307);
#232=LINE('',#1224,#308);
#233=LINE('',#1231,#309);
#234=LINE('',#1235,#310);
#235=LINE('',#1242,#311);
#236=LINE('',#1246,#312);
#237=LINE('',#1253,#313);
#238=LINE('',#1257,#314);
#239=LINE('',#1264,#315);
#240=LINE('',#1268,#316);
#241=LINE('',#1275,#317);
#242=LINE('',#1279,#318);
#243=LINE('',#1285,#319);
#244=LINE('',#1287,#320);
#245=LINE('',#1289,#321);
#246=LINE('',#1290,#322);
#247=LINE('',#1293,#323);
#248=LINE('',#1295,#324);
#249=LINE('',#1296,#325);
#250=LINE('',#1299,#326);
#251=LINE('',#1301,#327);
#252=LINE('',#1302,#328);
#253=LINE('',#1304,#329);
#254=LINE('',#1305,#330);
#255=VECTOR('',#871,10.);
#256=VECTOR('',#872,10.);
#257=VECTOR('',#873,10.);
#258=VECTOR('',#874,10.);
#259=VECTOR('',#877,10.);
#260=VECTOR('',#878,10.);
#261=VECTOR('',#879,10.);
#262=VECTOR('',#882,10.);
#263=VECTOR('',#883,10.);
#264=VECTOR('',#884,10.);
#265=VECTOR('',#887,10.);
#266=VECTOR('',#888,10.);
#267=VECTOR('',#893,10.);
#268=VECTOR('',#894,10.);
#269=VECTOR('',#895,10.);
#270=VECTOR('',#896,10.);
#271=VECTOR('',#899,10.);
#272=VECTOR('',#900,10.);
#273=VECTOR('',#901,10.);
#274=VECTOR('',#904,10.);
#275=VECTOR('',#905,10.);
#276=VECTOR('',#906,10.);
#277=VECTOR('',#909,10.);
#278=VECTOR('',#910,10.);
#279=VECTOR('',#915,10.);
#280=VECTOR('',#916,10.);
#281=VECTOR('',#917,10.);
#282=VECTOR('',#918,10.);
#283=VECTOR('',#921,10.);
#284=VECTOR('',#922,10.);
#285=VECTOR('',#923,10.);
#286=VECTOR('',#926,10.);
#287=VECTOR('',#927,10.);
#288=VECTOR('',#928,10.);
#289=VECTOR('',#931,10.);
#290=VECTOR('',#932,10.);
#291=VECTOR('',#937,10.);
#292=VECTOR('',#938,10.);
#293=VECTOR('',#939,10.);
#294=VECTOR('',#940,10.);
#295=VECTOR('',#943,10.);
#296=VECTOR('',#944,10.);
#297=VECTOR('',#945,10.);
#298=VECTOR('',#948,10.);
#299=VECTOR('',#949,10.);
#300=VECTOR('',#950,10.);
#301=VECTOR('',#953,10.);
#302=VECTOR('',#954,10.);
#303=VECTOR('',#961,0.395000000000003);
#304=VECTOR('',#966,0.750000000000002);
#305=VECTOR('',#975,0.394999999999994);
#306=VECTOR('',#980,0.749999999999993);
#307=VECTOR('',#989,0.394999999999994);
#308=VECTOR('',#994,0.749999999999993);
#309=VECTOR('',#1003,0.394999999999994);
#310=VECTOR('',#1008,0.749999999999993);
#311=VECTOR('',#1017,0.395000000000003);
#312=VECTOR('',#1022,0.750000000000002);
#313=VECTOR('',#1031,0.395);
#314=VECTOR('',#1036,0.75);
#315=VECTOR('',#1045,0.395);
#316=VECTOR('',#1050,0.75);
#317=VECTOR('',#1059,0.395);
#318=VECTOR('',#1064,0.75);
#319=VECTOR('',#1071,10.);
#320=VECTOR('',#1072,10.);
#321=VECTOR('',#1073,10.);
#322=VECTOR('',#1074,10.);
#323=VECTOR('',#1077,10.);
#324=VECTOR('',#1078,10.);
#325=VECTOR('',#1079,10.);
#326=VECTOR('',#1082,10.);
#327=VECTOR('',#1083,10.);
#328=VECTOR('',#1084,10.);
#329=VECTOR('',#1087,10.);
#330=VECTOR('',#1088,10.);
#331=VERTEX_POINT('',#1095);
#332=VERTEX_POINT('',#1096);
#333=VERTEX_POINT('',#1098);
#334=VERTEX_POINT('',#1100);
#335=VERTEX_POINT('',#1104);
#336=VERTEX_POINT('',#1106);
#337=VERTEX_POINT('',#1110);
#338=VERTEX_POINT('',#1112);
#339=VERTEX_POINT('',#1120);
#340=VERTEX_POINT('',#1121);
#341=VERTEX_POINT('',#1123);
#342=VERTEX_POINT('',#1125);
#343=VERTEX_POINT('',#1129);
#344=VERTEX_POINT('',#1131);
#345=VERTEX_POINT('',#1135);
#346=VERTEX_POINT('',#1137);
#347=VERTEX_POINT('',#1145);
#348=VERTEX_POINT('',#1146);
#349=VERTEX_POINT('',#1148);
#350=VERTEX_POINT('',#1150);
#351=VERTEX_POINT('',#1154);
#352=VERTEX_POINT('',#1156);
#353=VERTEX_POINT('',#1160);
#354=VERTEX_POINT('',#1162);
#355=VERTEX_POINT('',#1170);
#356=VERTEX_POINT('',#1171);
#357=VERTEX_POINT('',#1173);
#358=VERTEX_POINT('',#1175);
#359=VERTEX_POINT('',#1179);
#360=VERTEX_POINT('',#1181);
#361=VERTEX_POINT('',#1185);
#362=VERTEX_POINT('',#1187);
#363=VERTEX_POINT('',#1195);
#364=VERTEX_POINT('',#1197);
#365=VERTEX_POINT('',#1201);
#366=VERTEX_POINT('',#1206);
#367=VERTEX_POINT('',#1208);
#368=VERTEX_POINT('',#1212);
#369=VERTEX_POINT('',#1217);
#370=VERTEX_POINT('',#1219);
#371=VERTEX_POINT('',#1223);
#372=VERTEX_POINT('',#1228);
#373=VERTEX_POINT('',#1230);
#374=VERTEX_POINT('',#1234);
#375=VERTEX_POINT('',#1239);
#376=VERTEX_POINT('',#1241);
#377=VERTEX_POINT('',#1245);
#378=VERTEX_POINT('',#1250);
#379=VERTEX_POINT('',#1252);
#380=VERTEX_POINT('',#1256);
#381=VERTEX_POINT('',#1261);
#382=VERTEX_POINT('',#1263);
#383=VERTEX_POINT('',#1267);
#384=VERTEX_POINT('',#1272);
#385=VERTEX_POINT('',#1274);
#386=VERTEX_POINT('',#1278);
#387=VERTEX_POINT('',#1283);
#388=VERTEX_POINT('',#1284);
#389=VERTEX_POINT('',#1286);
#390=VERTEX_POINT('',#1288);
#391=VERTEX_POINT('',#1292);
#392=VERTEX_POINT('',#1294);
#393=VERTEX_POINT('',#1298);
#394=VERTEX_POINT('',#1300);
#395=EDGE_CURVE('',#331,#332,#179,.T.);
#396=EDGE_CURVE('',#331,#333,#180,.T.);
#397=EDGE_CURVE('',#333,#334,#181,.T.);
#398=EDGE_CURVE('',#332,#334,#182,.T.);
#399=EDGE_CURVE('',#335,#331,#183,.T.);
#400=EDGE_CURVE('',#335,#336,#184,.T.);
#401=EDGE_CURVE('',#336,#333,#185,.T.);
#402=EDGE_CURVE('',#337,#335,#186,.T.);
#403=EDGE_CURVE('',#337,#338,#187,.T.);
#404=EDGE_CURVE('',#338,#336,#188,.T.);
#405=EDGE_CURVE('',#332,#337,#189,.T.);
#406=EDGE_CURVE('',#334,#338,#190,.T.);
#407=EDGE_CURVE('',#339,#340,#191,.T.);
#408=EDGE_CURVE('',#339,#341,#192,.T.);
#409=EDGE_CURVE('',#341,#342,#193,.T.);
#410=EDGE_CURVE('',#340,#342,#194,.T.);
#411=EDGE_CURVE('',#343,#339,#195,.T.);
#412=EDGE_CURVE('',#343,#344,#196,.T.);
#413=EDGE_CURVE('',#344,#341,#197,.T.);
#414=EDGE_CURVE('',#345,#343,#198,.T.);
#415=EDGE_CURVE('',#345,#346,#199,.T.);
#416=EDGE_CURVE('',#346,#344,#200,.T.);
#417=EDGE_CURVE('',#340,#345,#201,.T.);
#418=EDGE_CURVE('',#342,#346,#202,.T.);
#419=EDGE_CURVE('',#347,#348,#203,.T.);
#420=EDGE_CURVE('',#347,#349,#204,.T.);
#421=EDGE_CURVE('',#349,#350,#205,.T.);
#422=EDGE_CURVE('',#348,#350,#206,.T.);
#423=EDGE_CURVE('',#351,#347,#207,.T.);
#424=EDGE_CURVE('',#351,#352,#208,.T.);
#425=EDGE_CURVE('',#352,#349,#209,.T.);
#426=EDGE_CURVE('',#353,#351,#210,.T.);
#427=EDGE_CURVE('',#353,#354,#211,.T.);
#428=EDGE_CURVE('',#354,#352,#212,.T.);
#429=EDGE_CURVE('',#348,#353,#213,.T.);
#430=EDGE_CURVE('',#350,#354,#214,.T.);
#431=EDGE_CURVE('',#355,#356,#215,.T.);
#432=EDGE_CURVE('',#355,#357,#216,.T.);
#433=EDGE_CURVE('',#357,#358,#217,.T.);
#434=EDGE_CURVE('',#356,#358,#218,.T.);
#435=EDGE_CURVE('',#359,#355,#219,.T.);
#436=EDGE_CURVE('',#359,#360,#220,.T.);
#437=EDGE_CURVE('',#360,#357,#221,.T.);
#438=EDGE_CURVE('',#361,#359,#222,.T.);
#439=EDGE_CURVE('',#361,#362,#223,.T.);
#440=EDGE_CURVE('',#362,#360,#224,.T.);
#441=EDGE_CURVE('',#356,#361,#225,.T.);
#442=EDGE_CURVE('',#358,#362,#226,.T.);
#443=EDGE_CURVE('',#363,#363,#35,.T.);
#444=EDGE_CURVE('',#363,#364,#227,.T.);
#445=EDGE_CURVE('',#364,#364,#36,.T.);
#446=EDGE_CURVE('',#364,#365,#228,.T.);
#447=EDGE_CURVE('',#365,#365,#37,.T.);
#448=EDGE_CURVE('',#366,#366,#38,.T.);
#449=EDGE_CURVE('',#366,#367,#229,.T.);
#450=EDGE_CURVE('',#367,#367,#39,.T.);
#451=EDGE_CURVE('',#367,#368,#230,.T.);
#452=EDGE_CURVE('',#368,#368,#40,.T.);
#453=EDGE_CURVE('',#369,#369,#41,.T.);
#454=EDGE_CURVE('',#369,#370,#231,.T.);
#455=EDGE_CURVE('',#370,#370,#42,.T.);
#456=EDGE_CURVE('',#370,#371,#232,.T.);
#457=EDGE_CURVE('',#371,#371,#43,.T.);
#458=EDGE_CURVE('',#372,#372,#44,.T.);
#459=EDGE_CURVE('',#372,#373,#233,.T.);
#460=EDGE_CURVE('',#373,#373,#45,.T.);
#461=EDGE_CURVE('',#373,#374,#234,.T.);
#462=EDGE_CURVE('',#374,#374,#46,.T.);
#463=EDGE_CURVE('',#375,#375,#47,.T.);
#464=EDGE_CURVE('',#375,#376,#235,.T.);
#465=EDGE_CURVE('',#376,#376,#48,.T.);
#466=EDGE_CURVE('',#376,#377,#236,.T.);
#467=EDGE_CURVE('',#377,#377,#49,.T.);
#468=EDGE_CURVE('',#378,#378,#50,.T.);
#469=EDGE_CURVE('',#378,#379,#237,.T.);
#470=EDGE_CURVE('',#379,#379,#51,.T.);
#471=EDGE_CURVE('',#379,#380,#238,.T.);
#472=EDGE_CURVE('',#380,#380,#52,.T.);
#473=EDGE_CURVE('',#381,#381,#53,.T.);
#474=EDGE_CURVE('',#381,#382,#239,.T.);
#475=EDGE_CURVE('',#382,#382,#54,.T.);
#476=EDGE_CURVE('',#382,#383,#240,.T.);
#477=EDGE_CURVE('',#383,#383,#55,.T.);
#478=EDGE_CURVE('',#384,#384,#56,.T.);
#479=EDGE_CURVE('',#384,#385,#241,.T.);
#480=EDGE_CURVE('',#385,#385,#57,.T.);
#481=EDGE_CURVE('',#385,#386,#242,.T.);
#482=EDGE_CURVE('',#386,#386,#58,.T.);
#483=EDGE_CURVE('',#387,#388,#243,.T.);
#484=EDGE_CURVE('',#388,#389,#244,.T.);
#485=EDGE_CURVE('',#390,#389,#245,.T.);
#486=EDGE_CURVE('',#387,#390,#246,.T.);
#487=EDGE_CURVE('',#391,#387,#247,.T.);
#488=EDGE_CURVE('',#392,#390,#248,.T.);
#489=EDGE_CURVE('',#391,#392,#249,.T.);
#490=EDGE_CURVE('',#393,#391,#250,.T.);
#491=EDGE_CURVE('',#394,#392,#251,.T.);
#492=EDGE_CURVE('',#393,#394,#252,.T.);
#493=EDGE_CURVE('',#388,#393,#253,.T.);
#494=EDGE_CURVE('',#389,#394,#254,.T.);
#495=ORIENTED_EDGE('',*,*,#395,.F.);
#496=ORIENTED_EDGE('',*,*,#396,.T.);
#497=ORIENTED_EDGE('',*,*,#397,.T.);
#498=ORIENTED_EDGE('',*,*,#398,.F.);
#499=ORIENTED_EDGE('',*,*,#399,.F.);
#500=ORIENTED_EDGE('',*,*,#400,.T.);
#501=ORIENTED_EDGE('',*,*,#401,.T.);
#502=ORIENTED_EDGE('',*,*,#396,.F.);
#503=ORIENTED_EDGE('',*,*,#402,.F.);
#504=ORIENTED_EDGE('',*,*,#403,.T.);
#505=ORIENTED_EDGE('',*,*,#404,.T.);
#506=ORIENTED_EDGE('',*,*,#400,.F.);
#507=ORIENTED_EDGE('',*,*,#405,.F.);
#508=ORIENTED_EDGE('',*,*,#398,.T.);
#509=ORIENTED_EDGE('',*,*,#406,.T.);
#510=ORIENTED_EDGE('',*,*,#403,.F.);
#511=ORIENTED_EDGE('',*,*,#406,.F.);
#512=ORIENTED_EDGE('',*,*,#397,.F.);
#513=ORIENTED_EDGE('',*,*,#401,.F.);
#514=ORIENTED_EDGE('',*,*,#404,.F.);
#515=ORIENTED_EDGE('',*,*,#407,.F.);
#516=ORIENTED_EDGE('',*,*,#408,.T.);
#517=ORIENTED_EDGE('',*,*,#409,.T.);
#518=ORIENTED_EDGE('',*,*,#410,.F.);
#519=ORIENTED_EDGE('',*,*,#411,.F.);
#520=ORIENTED_EDGE('',*,*,#412,.T.);
#521=ORIENTED_EDGE('',*,*,#413,.T.);
#522=ORIENTED_EDGE('',*,*,#408,.F.);
#523=ORIENTED_EDGE('',*,*,#414,.F.);
#524=ORIENTED_EDGE('',*,*,#415,.T.);
#525=ORIENTED_EDGE('',*,*,#416,.T.);
#526=ORIENTED_EDGE('',*,*,#412,.F.);
#527=ORIENTED_EDGE('',*,*,#417,.F.);
#528=ORIENTED_EDGE('',*,*,#410,.T.);
#529=ORIENTED_EDGE('',*,*,#418,.T.);
#530=ORIENTED_EDGE('',*,*,#415,.F.);
#531=ORIENTED_EDGE('',*,*,#418,.F.);
#532=ORIENTED_EDGE('',*,*,#409,.F.);
#533=ORIENTED_EDGE('',*,*,#413,.F.);
#534=ORIENTED_EDGE('',*,*,#416,.F.);
#535=ORIENTED_EDGE('',*,*,#419,.F.);
#536=ORIENTED_EDGE('',*,*,#420,.T.);
#537=ORIENTED_EDGE('',*,*,#421,.T.);
#538=ORIENTED_EDGE('',*,*,#422,.F.);
#539=ORIENTED_EDGE('',*,*,#423,.F.);
#540=ORIENTED_EDGE('',*,*,#424,.T.);
#541=ORIENTED_EDGE('',*,*,#425,.T.);
#542=ORIENTED_EDGE('',*,*,#420,.F.);
#543=ORIENTED_EDGE('',*,*,#426,.F.);
#544=ORIENTED_EDGE('',*,*,#427,.T.);
#545=ORIENTED_EDGE('',*,*,#428,.T.);
#546=ORIENTED_EDGE('',*,*,#424,.F.);
#547=ORIENTED_EDGE('',*,*,#429,.F.);
#548=ORIENTED_EDGE('',*,*,#422,.T.);
#549=ORIENTED_EDGE('',*,*,#430,.T.);
#550=ORIENTED_EDGE('',*,*,#427,.F.);
#551=ORIENTED_EDGE('',*,*,#430,.F.);
#552=ORIENTED_EDGE('',*,*,#421,.F.);
#553=ORIENTED_EDGE('',*,*,#425,.F.);
#554=ORIENTED_EDGE('',*,*,#428,.F.);
#555=ORIENTED_EDGE('',*,*,#431,.F.);
#556=ORIENTED_EDGE('',*,*,#432,.T.);
#557=ORIENTED_EDGE('',*,*,#433,.T.);
#558=ORIENTED_EDGE('',*,*,#434,.F.);
#559=ORIENTED_EDGE('',*,*,#435,.F.);
#560=ORIENTED_EDGE('',*,*,#436,.T.);
#561=ORIENTED_EDGE('',*,*,#437,.T.);
#562=ORIENTED_EDGE('',*,*,#432,.F.);
#563=ORIENTED_EDGE('',*,*,#438,.F.);
#564=ORIENTED_EDGE('',*,*,#439,.T.);
#565=ORIENTED_EDGE('',*,*,#440,.T.);
#566=ORIENTED_EDGE('',*,*,#436,.F.);
#567=ORIENTED_EDGE('',*,*,#441,.F.);
#568=ORIENTED_EDGE('',*,*,#434,.T.);
#569=ORIENTED_EDGE('',*,*,#442,.T.);
#570=ORIENTED_EDGE('',*,*,#439,.F.);
#571=ORIENTED_EDGE('',*,*,#442,.F.);
#572=ORIENTED_EDGE('',*,*,#433,.F.);
#573=ORIENTED_EDGE('',*,*,#437,.F.);
#574=ORIENTED_EDGE('',*,*,#440,.F.);
#575=ORIENTED_EDGE('',*,*,#443,.T.);
#576=ORIENTED_EDGE('',*,*,#444,.T.);
#577=ORIENTED_EDGE('',*,*,#445,.T.);
#578=ORIENTED_EDGE('',*,*,#444,.F.);
#579=ORIENTED_EDGE('',*,*,#445,.F.);
#580=ORIENTED_EDGE('',*,*,#446,.T.);
#581=ORIENTED_EDGE('',*,*,#447,.F.);
#582=ORIENTED_EDGE('',*,*,#446,.F.);
#583=ORIENTED_EDGE('',*,*,#443,.F.);
#584=ORIENTED_EDGE('',*,*,#448,.T.);
#585=ORIENTED_EDGE('',*,*,#449,.T.);
#586=ORIENTED_EDGE('',*,*,#450,.T.);
#587=ORIENTED_EDGE('',*,*,#449,.F.);
#588=ORIENTED_EDGE('',*,*,#450,.F.);
#589=ORIENTED_EDGE('',*,*,#451,.T.);
#590=ORIENTED_EDGE('',*,*,#452,.F.);
#591=ORIENTED_EDGE('',*,*,#451,.F.);
#592=ORIENTED_EDGE('',*,*,#448,.F.);
#593=ORIENTED_EDGE('',*,*,#453,.T.);
#594=ORIENTED_EDGE('',*,*,#454,.T.);
#595=ORIENTED_EDGE('',*,*,#455,.T.);
#596=ORIENTED_EDGE('',*,*,#454,.F.);
#597=ORIENTED_EDGE('',*,*,#455,.F.);
#598=ORIENTED_EDGE('',*,*,#456,.T.);
#599=ORIENTED_EDGE('',*,*,#457,.F.);
#600=ORIENTED_EDGE('',*,*,#456,.F.);
#601=ORIENTED_EDGE('',*,*,#453,.F.);
#602=ORIENTED_EDGE('',*,*,#458,.T.);
#603=ORIENTED_EDGE('',*,*,#459,.T.);
#604=ORIENTED_EDGE('',*,*,#460,.T.);
#605=ORIENTED_EDGE('',*,*,#459,.F.);
#606=ORIENTED_EDGE('',*,*,#460,.F.);
#607=ORIENTED_EDGE('',*,*,#461,.T.);
#608=ORIENTED_EDGE('',*,*,#462,.F.);
#609=ORIENTED_EDGE('',*,*,#461,.F.);
#610=ORIENTED_EDGE('',*,*,#458,.F.);
#611=ORIENTED_EDGE('',*,*,#463,.T.);
#612=ORIENTED_EDGE('',*,*,#464,.T.);
#613=ORIENTED_EDGE('',*,*,#465,.T.);
#614=ORIENTED_EDGE('',*,*,#464,.F.);
#615=ORIENTED_EDGE('',*,*,#465,.F.);
#616=ORIENTED_EDGE('',*,*,#466,.T.);
#617=ORIENTED_EDGE('',*,*,#467,.F.);
#618=ORIENTED_EDGE('',*,*,#466,.F.);
#619=ORIENTED_EDGE('',*,*,#463,.F.);
#620=ORIENTED_EDGE('',*,*,#468,.T.);
#621=ORIENTED_EDGE('',*,*,#469,.T.);
#622=ORIENTED_EDGE('',*,*,#470,.T.);
#623=ORIENTED_EDGE('',*,*,#469,.F.);
#624=ORIENTED_EDGE('',*,*,#470,.F.);
#625=ORIENTED_EDGE('',*,*,#471,.T.);
#626=ORIENTED_EDGE('',*,*,#472,.F.);
#627=ORIENTED_EDGE('',*,*,#471,.F.);
#628=ORIENTED_EDGE('',*,*,#468,.F.);
#629=ORIENTED_EDGE('',*,*,#473,.T.);
#630=ORIENTED_EDGE('',*,*,#474,.T.);
#631=ORIENTED_EDGE('',*,*,#475,.T.);
#632=ORIENTED_EDGE('',*,*,#474,.F.);
#633=ORIENTED_EDGE('',*,*,#475,.F.);
#634=ORIENTED_EDGE('',*,*,#476,.T.);
#635=ORIENTED_EDGE('',*,*,#477,.F.);
#636=ORIENTED_EDGE('',*,*,#476,.F.);
#637=ORIENTED_EDGE('',*,*,#473,.F.);
#638=ORIENTED_EDGE('',*,*,#478,.T.);
#639=ORIENTED_EDGE('',*,*,#479,.T.);
#640=ORIENTED_EDGE('',*,*,#480,.T.);
#641=ORIENTED_EDGE('',*,*,#479,.F.);
#642=ORIENTED_EDGE('',*,*,#480,.F.);
#643=ORIENTED_EDGE('',*,*,#481,.T.);
#644=ORIENTED_EDGE('',*,*,#482,.F.);
#645=ORIENTED_EDGE('',*,*,#481,.F.);
#646=ORIENTED_EDGE('',*,*,#478,.F.);
#647=ORIENTED_EDGE('',*,*,#483,.T.);
#648=ORIENTED_EDGE('',*,*,#484,.T.);
#649=ORIENTED_EDGE('',*,*,#485,.F.);
#650=ORIENTED_EDGE('',*,*,#486,.F.);
#651=ORIENTED_EDGE('',*,*,#395,.T.);
#652=ORIENTED_EDGE('',*,*,#405,.T.);
#653=ORIENTED_EDGE('',*,*,#402,.T.);
#654=ORIENTED_EDGE('',*,*,#399,.T.);
#655=ORIENTED_EDGE('',*,*,#487,.T.);
#656=ORIENTED_EDGE('',*,*,#486,.T.);
#657=ORIENTED_EDGE('',*,*,#488,.F.);
#658=ORIENTED_EDGE('',*,*,#489,.F.);
#659=ORIENTED_EDGE('',*,*,#431,.T.);
#660=ORIENTED_EDGE('',*,*,#441,.T.);
#661=ORIENTED_EDGE('',*,*,#438,.T.);
#662=ORIENTED_EDGE('',*,*,#435,.T.);
#663=ORIENTED_EDGE('',*,*,#490,.T.);
#664=ORIENTED_EDGE('',*,*,#489,.T.);
#665=ORIENTED_EDGE('',*,*,#491,.F.);
#666=ORIENTED_EDGE('',*,*,#492,.F.);
#667=ORIENTED_EDGE('',*,*,#407,.T.);
#668=ORIENTED_EDGE('',*,*,#417,.T.);
#669=ORIENTED_EDGE('',*,*,#414,.T.);
#670=ORIENTED_EDGE('',*,*,#411,.T.);
#671=ORIENTED_EDGE('',*,*,#493,.T.);
#672=ORIENTED_EDGE('',*,*,#492,.T.);
#673=ORIENTED_EDGE('',*,*,#494,.F.);
#674=ORIENTED_EDGE('',*,*,#484,.F.);
#675=ORIENTED_EDGE('',*,*,#419,.T.);
#676=ORIENTED_EDGE('',*,*,#429,.T.);
#677=ORIENTED_EDGE('',*,*,#426,.T.);
#678=ORIENTED_EDGE('',*,*,#423,.T.);
#679=ORIENTED_EDGE('',*,*,#494,.T.);
#680=ORIENTED_EDGE('',*,*,#491,.T.);
#681=ORIENTED_EDGE('',*,*,#488,.T.);
#682=ORIENTED_EDGE('',*,*,#485,.T.);
#683=ORIENTED_EDGE('',*,*,#493,.F.);
#684=ORIENTED_EDGE('',*,*,#483,.F.);
#685=ORIENTED_EDGE('',*,*,#487,.F.);
#686=ORIENTED_EDGE('',*,*,#490,.F.);
#687=ORIENTED_EDGE('',*,*,#457,.T.);
#688=ORIENTED_EDGE('',*,*,#482,.T.);
#689=ORIENTED_EDGE('',*,*,#472,.T.);
#690=ORIENTED_EDGE('',*,*,#452,.T.);
#691=ORIENTED_EDGE('',*,*,#462,.T.);
#692=ORIENTED_EDGE('',*,*,#477,.T.);
#693=ORIENTED_EDGE('',*,*,#467,.T.);
#694=ORIENTED_EDGE('',*,*,#447,.T.);
#695=PLANE('',#793);
#696=PLANE('',#794);
#697=PLANE('',#795);
#698=PLANE('',#796);
#699=PLANE('',#797);
#700=PLANE('',#798);
#701=PLANE('',#799);
#702=PLANE('',#800);
#703=PLANE('',#801);
#704=PLANE('',#802);
#705=PLANE('',#803);
#706=PLANE('',#804);
#707=PLANE('',#805);
#708=PLANE('',#806);
#709=PLANE('',#807);
#710=PLANE('',#808);
#711=PLANE('',#809);
#712=PLANE('',#810);
#713=PLANE('',#811);
#714=PLANE('',#812);
#715=PLANE('',#818);
#716=PLANE('',#824);
#717=PLANE('',#830);
#718=PLANE('',#836);
#719=PLANE('',#842);
#720=PLANE('',#848);
#721=PLANE('',#854);
#722=PLANE('',#860);
#723=PLANE('',#861);
#724=PLANE('',#862);
#725=PLANE('',#863);
#726=PLANE('',#864);
#727=PLANE('',#865);
#728=PLANE('',#866);
#729=ADVANCED_FACE('',(#67),#695,.F.);
#730=ADVANCED_FACE('',(#68),#696,.F.);
#731=ADVANCED_FACE('',(#69),#697,.F.);
#732=ADVANCED_FACE('',(#70),#698,.F.);
#733=ADVANCED_FACE('',(#71),#699,.F.);
#734=ADVANCED_FACE('',(#72),#700,.F.);
#735=ADVANCED_FACE('',(#73),#701,.F.);
#736=ADVANCED_FACE('',(#74),#702,.F.);
#737=ADVANCED_FACE('',(#75),#703,.F.);
#738=ADVANCED_FACE('',(#76),#704,.F.);
#739=ADVANCED_FACE('',(#77),#705,.F.);
#740=ADVANCED_FACE('',(#78),#706,.F.);
#741=ADVANCED_FACE('',(#79),#707,.F.);
#742=ADVANCED_FACE('',(#80),#708,.F.);
#743=ADVANCED_FACE('',(#81),#709,.F.);
#744=ADVANCED_FACE('',(#82),#710,.F.);
#745=ADVANCED_FACE('',(#83),#711,.F.);
#746=ADVANCED_FACE('',(#84),#712,.F.);
#747=ADVANCED_FACE('',(#85),#713,.F.);
#748=ADVANCED_FACE('',(#86),#714,.F.);
#749=ADVANCED_FACE('',(#87),#59,.T.);
#750=ADVANCED_FACE('',(#88),#27,.T.);
#751=ADVANCED_FACE('',(#89),#715,.T.);
#752=ADVANCED_FACE('',(#90),#60,.T.);
#753=ADVANCED_FACE('',(#91),#28,.T.);
#754=ADVANCED_FACE('',(#92),#716,.T.);
#755=ADVANCED_FACE('',(#93),#61,.T.);
#756=ADVANCED_FACE('',(#94),#29,.T.);
#757=ADVANCED_FACE('',(#95),#717,.T.);
#758=ADVANCED_FACE('',(#96),#62,.T.);
#759=ADVANCED_FACE('',(#97),#30,.T.);
#760=ADVANCED_FACE('',(#98),#718,.T.);
#761=ADVANCED_FACE('',(#99),#63,.T.);
#762=ADVANCED_FACE('',(#100),#31,.T.);
#763=ADVANCED_FACE('',(#101),#719,.T.);
#764=ADVANCED_FACE('',(#102),#64,.T.);
#765=ADVANCED_FACE('',(#103),#32,.T.);
#766=ADVANCED_FACE('',(#104),#720,.T.);
#767=ADVANCED_FACE('',(#105),#65,.T.);
#768=ADVANCED_FACE('',(#106),#33,.T.);
#769=ADVANCED_FACE('',(#107),#721,.T.);
#770=ADVANCED_FACE('',(#108),#66,.T.);
#771=ADVANCED_FACE('',(#109),#34,.T.);
#772=ADVANCED_FACE('',(#110),#722,.T.);
#773=ADVANCED_FACE('',(#111,#15),#723,.T.);
#774=ADVANCED_FACE('',(#112,#16),#724,.T.);
#775=ADVANCED_FACE('',(#113,#17),#725,.T.);
#776=ADVANCED_FACE('',(#114,#18),#726,.T.);
#777=ADVANCED_FACE('',(#115),#727,.T.);
#778=ADVANCED_FACE('',(#116,#19,#20,#21,#22,#23,#24,#25,#26),#728,.F.);
#779=CLOSED_SHELL('',(#729,#730,#731,#732,#733,#734,#735,#736,#737,#738,
#739,#740,#741,#742,#743,#744,#745,#746,#747,#748,#749,#750,#751,#752,#753,
#754,#755,#756,#757,#758,#759,#760,#761,#762,#763,#764,#765,#766,#767,#768,
#769,#770,#771,#772,#773,#774,#775,#776,#777,#778));
#780=DERIVED_UNIT_ELEMENT(#782,1.);
#781=DERIVED_UNIT_ELEMENT(#1313,-3.);
#782=(
MASS_UNIT()
NAMED_UNIT(*)
SI_UNIT(.KILO.,.GRAM.)
);
#783=DERIVED_UNIT((#780,#781));
#784=MEASURE_REPRESENTATION_ITEM('density measure',
POSITIVE_RATIO_MEASURE(7850.),#783);
#785=PROPERTY_DEFINITION_REPRESENTATION(#790,#787);
#786=PROPERTY_DEFINITION_REPRESENTATION(#791,#788);
#787=REPRESENTATION('material name',(#789),#1310);
#788=REPRESENTATION('density',(#784),#1310);
#789=DESCRIPTIVE_REPRESENTATION_ITEM('Steel','Steel');
#790=PROPERTY_DEFINITION('material property','material name',#1320);
#791=PROPERTY_DEFINITION('material property','density of part',#1320);
#792=AXIS2_PLACEMENT_3D('',#1093,#867,#868);
#793=AXIS2_PLACEMENT_3D('',#1094,#869,#870);
#794=AXIS2_PLACEMENT_3D('',#1103,#875,#876);
#795=AXIS2_PLACEMENT_3D('',#1109,#880,#881);
#796=AXIS2_PLACEMENT_3D('',#1115,#885,#886);
#797=AXIS2_PLACEMENT_3D('',#1118,#889,#890);
#798=AXIS2_PLACEMENT_3D('',#1119,#891,#892);
#799=AXIS2_PLACEMENT_3D('',#1128,#897,#898);
#800=AXIS2_PLACEMENT_3D('',#1134,#902,#903);
#801=AXIS2_PLACEMENT_3D('',#1140,#907,#908);
#802=AXIS2_PLACEMENT_3D('',#1143,#911,#912);
#803=AXIS2_PLACEMENT_3D('',#1144,#913,#914);
#804=AXIS2_PLACEMENT_3D('',#1153,#919,#920);
#805=AXIS2_PLACEMENT_3D('',#1159,#924,#925);
#806=AXIS2_PLACEMENT_3D('',#1165,#929,#930);
#807=AXIS2_PLACEMENT_3D('',#1168,#933,#934);
#808=AXIS2_PLACEMENT_3D('',#1169,#935,#936);
#809=AXIS2_PLACEMENT_3D('',#1178,#941,#942);
#810=AXIS2_PLACEMENT_3D('',#1184,#946,#947);
#811=AXIS2_PLACEMENT_3D('',#1190,#951,#952);
#812=AXIS2_PLACEMENT_3D('',#1193,#955,#956);
#813=AXIS2_PLACEMENT_3D('',#1194,#957,#958);
#814=AXIS2_PLACEMENT_3D('',#1196,#959,#960);
#815=AXIS2_PLACEMENT_3D('',#1199,#962,#963);
#816=AXIS2_PLACEMENT_3D('',#1200,#964,#965);
#817=AXIS2_PLACEMENT_3D('',#1203,#967,#968);
#818=AXIS2_PLACEMENT_3D('',#1204,#969,#970);
#819=AXIS2_PLACEMENT_3D('',#1205,#971,#972);
#820=AXIS2_PLACEMENT_3D('',#1207,#973,#974);
#821=AXIS2_PLACEMENT_3D('',#1210,#976,#977);
#822=AXIS2_PLACEMENT_3D('',#1211,#978,#979);
#823=AXIS2_PLACEMENT_3D('',#1214,#981,#982);
#824=AXIS2_PLACEMENT_3D('',#1215,#983,#984);
#825=AXIS2_PLACEMENT_3D('',#1216,#985,#986);
#826=AXIS2_PLACEMENT_3D('',#1218,#987,#988);
#827=AXIS2_PLACEMENT_3D('',#1221,#990,#991);
#828=AXIS2_PLACEMENT_3D('',#1222,#992,#993);
#829=AXIS2_PLACEMENT_3D('',#1225,#995,#996);
#830=AXIS2_PLACEMENT_3D('',#1226,#997,#998);
#831=AXIS2_PLACEMENT_3D('',#1227,#999,#1000);
#832=AXIS2_PLACEMENT_3D('',#1229,#1001,#1002);
#833=AXIS2_PLACEMENT_3D('',#1232,#1004,#1005);
#834=AXIS2_PLACEMENT_3D('',#1233,#1006,#1007);
#835=AXIS2_PLACEMENT_3D('',#1236,#1009,#1010);
#836=AXIS2_PLACEMENT_3D('',#1237,#1011,#1012);
#837=AXIS2_PLACEMENT_3D('',#1238,#1013,#1014);
#838=AXIS2_PLACEMENT_3D('',#1240,#1015,#1016);
#839=AXIS2_PLACEMENT_3D('',#1243,#1018,#1019);
#840=AXIS2_PLACEMENT_3D('',#1244,#1020,#1021);
#841=AXIS2_PLACEMENT_3D('',#1247,#1023,#1024);
#842=AXIS2_PLACEMENT_3D('',#1248,#1025,#1026);
#843=AXIS2_PLACEMENT_3D('',#1249,#1027,#1028);
#844=AXIS2_PLACEMENT_3D('',#1251,#1029,#1030);
#845=AXIS2_PLACEMENT_3D('',#1254,#1032,#1033);
#846=AXIS2_PLACEMENT_3D('',#1255,#1034,#1035);
#847=AXIS2_PLACEMENT_3D('',#1258,#1037,#1038);
#848=AXIS2_PLACEMENT_3D('',#1259,#1039,#1040);
#849=AXIS2_PLACEMENT_3D('',#1260,#1041,#1042);
#850=AXIS2_PLACEMENT_3D('',#1262,#1043,#1044);
#851=AXIS2_PLACEMENT_3D('',#1265,#1046,#1047);
#852=AXIS2_PLACEMENT_3D('',#1266,#1048,#1049);
#853=AXIS2_PLACEMENT_3D('',#1269,#1051,#1052);
#854=AXIS2_PLACEMENT_3D('',#1270,#1053,#1054);
#855=AXIS2_PLACEMENT_3D('',#1271,#1055,#1056);
#856=AXIS2_PLACEMENT_3D('',#1273,#1057,#1058);
#857=AXIS2_PLACEMENT_3D('',#1276,#1060,#1061);
#858=AXIS2_PLACEMENT_3D('',#1277,#1062,#1063);
#859=AXIS2_PLACEMENT_3D('',#1280,#1065,#1066);
#860=AXIS2_PLACEMENT_3D('',#1281,#1067,#1068);
#861=AXIS2_PLACEMENT_3D('',#1282,#1069,#1070);
#862=AXIS2_PLACEMENT_3D('',#1291,#1075,#1076);
#863=AXIS2_PLACEMENT_3D('',#1297,#1080,#1081);
#864=AXIS2_PLACEMENT_3D('',#1303,#1085,#1086);
#865=AXIS2_PLACEMENT_3D('',#1306,#1089,#1090);
#866=AXIS2_PLACEMENT_3D('',#1307,#1091,#1092);
#867=DIRECTION('axis',(0.,0.,1.));
#868=DIRECTION('refdir',(1.,0.,0.));
#869=DIRECTION('center_axis',(1.,0.,0.));
#870=DIRECTION('ref_axis',(0.,0.,1.));
#871=DIRECTION('',(0.,0.,1.));
#872=DIRECTION('',(0.,-1.,0.));
#873=DIRECTION('',(0.,0.,1.));
#874=DIRECTION('',(0.,-1.,0.));
#875=DIRECTION('center_axis',(0.,0.,-1.));
#876=DIRECTION('ref_axis',(1.,0.,0.));
#877=DIRECTION('',(1.,0.,0.));
#878=DIRECTION('',(0.,-1.,0.));
#879=DIRECTION('',(1.,0.,0.));
#880=DIRECTION('center_axis',(-1.,0.,0.));
#881=DIRECTION('ref_axis',(0.,0.,-1.));
#882=DIRECTION('',(0.,0.,-1.));
#883=DIRECTION('',(0.,-1.,0.));
#884=DIRECTION('',(0.,0.,-1.));
#885=DIRECTION('center_axis',(0.,0.,1.));
#886=DIRECTION('ref_axis',(-1.,0.,0.));
#887=DIRECTION('',(-1.,0.,0.));
#888=DIRECTION('',(-1.,0.,0.));
#889=DIRECTION('center_axis',(0.,-1.,0.));
#890=DIRECTION('ref_axis',(0.,0.,-1.));
#891=DIRECTION('center_axis',(0.,0.,1.));
#892=DIRECTION('ref_axis',(1.,0.,0.));
#893=DIRECTION('',(1.,0.,0.));
#894=DIRECTION('',(0.,1.,0.));
#895=DIRECTION('',(1.,0.,0.));
#896=DIRECTION('',(0.,1.,0.));
#897=DIRECTION('center_axis',(-1.,0.,0.));
#898=DIRECTION('ref_axis',(0.,0.,1.));
#899=DIRECTION('',(0.,0.,1.));
#900=DIRECTION('',(0.,1.,0.));
#901=DIRECTION('',(0.,0.,1.));
#902=DIRECTION('center_axis',(0.,0.,-1.));
#903=DIRECTION('ref_axis',(-1.,0.,0.));
#904=DIRECTION('',(-1.,0.,0.));
#905=DIRECTION('',(0.,1.,0.));
#906=DIRECTION('',(-1.,0.,0.));
#907=DIRECTION('center_axis',(1.,0.,0.));
#908=DIRECTION('ref_axis',(0.,0.,-1.));
#909=DIRECTION('',(0.,0.,-1.));
#910=DIRECTION('',(0.,0.,-1.));
#911=DIRECTION('center_axis',(0.,1.,0.));
#912=DIRECTION('ref_axis',(0.,0.,1.));
#913=DIRECTION('center_axis',(0.,0.,-1.));
#914=DIRECTION('ref_axis',(0.,-1.,0.));
#915=DIRECTION('',(0.,-1.,0.));
#916=DIRECTION('',(-1.,0.,0.));
#917=DIRECTION('',(0.,-1.,0.));
#918=DIRECTION('',(-1.,0.,0.));
#919=DIRECTION('center_axis',(0.,1.,0.));
#920=DIRECTION('ref_axis',(0.,0.,-1.));
#921=DIRECTION('',(0.,0.,-1.));
#922=DIRECTION('',(-1.,0.,0.));
#923=DIRECTION('',(0.,0.,-1.));
#924=DIRECTION('center_axis',(0.,0.,1.));
#925=DIRECTION('ref_axis',(0.,1.,0.));
#926=DIRECTION('',(0.,1.,0.));
#927=DIRECTION('',(-1.,0.,0.));
#928=DIRECTION('',(0.,1.,0.));
#929=DIRECTION('center_axis',(0.,-1.,0.));
#930=DIRECTION('ref_axis',(0.,0.,1.));
#931=DIRECTION('',(0.,0.,1.));
#932=DIRECTION('',(0.,0.,1.));
#933=DIRECTION('center_axis',(-1.,0.,0.));
#934=DIRECTION('ref_axis',(0.,0.,1.));
#935=DIRECTION('center_axis',(0.,-1.,0.));
#936=DIRECTION('ref_axis',(0.,0.,-1.));
#937=DIRECTION('',(0.,0.,-1.));
#938=DIRECTION('',(1.,0.,0.));
#939=DIRECTION('',(0.,0.,-1.));
#940=DIRECTION('',(1.,0.,0.));
#941=DIRECTION('center_axis',(0.,0.,1.));
#942=DIRECTION('ref_axis',(0.,-1.,0.));
#943=DIRECTION('',(0.,-1.,0.));
#944=DIRECTION('',(1.,0.,0.));
#945=DIRECTION('',(0.,-1.,0.));
#946=DIRECTION('center_axis',(0.,1.,0.));
#947=DIRECTION('ref_axis',(0.,0.,1.));
#948=DIRECTION('',(0.,0.,1.));
#949=DIRECTION('',(1.,0.,0.));
#950=DIRECTION('',(0.,0.,1.));
#951=DIRECTION('center_axis',(0.,0.,-1.));
#952=DIRECTION('ref_axis',(0.,1.,0.));
#953=DIRECTION('',(0.,1.,0.));
#954=DIRECTION('',(0.,1.,0.));
#955=DIRECTION('center_axis',(1.,0.,0.));
#956=DIRECTION('ref_axis',(0.,0.,-1.));
#957=DIRECTION('center_axis',(0.,0.,-1.));
#958=DIRECTION('ref_axis',(1.,0.,0.));
#959=DIRECTION('center_axis',(0.,0.,-1.));
#960=DIRECTION('ref_axis',(1.,0.,0.));
#961=DIRECTION('',(-0.509212491251783,-6.23605447497346E-17,-0.860640830284709));
#962=DIRECTION('center_axis',(0.,0.,1.));
#963=DIRECTION('ref_axis',(1.,0.,0.));
#964=DIRECTION('center_axis',(0.,0.,1.));
#965=DIRECTION('ref_axis',(1.,0.,0.));
#966=DIRECTION('',(0.,0.,-1.));
#967=DIRECTION('center_axis',(0.,0.,-1.));
#968=DIRECTION('ref_axis',(1.,0.,0.));
#969=DIRECTION('center_axis',(0.,0.,1.));
#970=DIRECTION('ref_axis',(1.,0.,0.));
#971=DIRECTION('center_axis',(0.,0.,-1.));
#972=DIRECTION('ref_axis',(1.,0.,0.));
#973=DIRECTION('center_axis',(0.,0.,-1.));
#974=DIRECTION('ref_axis',(1.,0.,0.));
#975=DIRECTION('',(-0.509212491251783,-6.23605447497346E-17,-0.860640830284709));
#976=DIRECTION('center_axis',(0.,0.,1.));
#977=DIRECTION('ref_axis',(1.,0.,0.));
#978=DIRECTION('center_axis',(0.,0.,1.));
#979=DIRECTION('ref_axis',(1.,0.,0.));
#980=DIRECTION('',(0.,0.,-1.));
#981=DIRECTION('center_axis',(0.,0.,-1.));
#982=DIRECTION('ref_axis',(1.,0.,0.));
#983=DIRECTION('center_axis',(0.,0.,1.));
#984=DIRECTION('ref_axis',(1.,0.,0.));
#985=DIRECTION('center_axis',(0.,0.,-1.));
#986=DIRECTION('ref_axis',(1.,0.,0.));
#987=DIRECTION('center_axis',(0.,0.,-1.));
#988=DIRECTION('ref_axis',(1.,0.,0.));
#989=DIRECTION('',(-0.509212491251783,-6.23605447497346E-17,-0.860640830284709));
#990=DIRECTION('center_axis',(0.,0.,1.));
#991=DIRECTION('ref_axis',(1.,0.,0.));
#992=DIRECTION('center_axis',(0.,0.,1.));
#993=DIRECTION('ref_axis',(1.,0.,0.));
#994=DIRECTION('',(0.,0.,-1.));
#995=DIRECTION('center_axis',(0.,0.,-1.));
#996=DIRECTION('ref_axis',(1.,0.,0.));
#997=DIRECTION('center_axis',(0.,0.,1.));
#998=DIRECTION('ref_axis',(1.,0.,0.));
#999=DIRECTION('center_axis',(0.,0.,-1.));
#1000=DIRECTION('ref_axis',(1.,0.,0.));
#1001=DIRECTION('center_axis',(0.,0.,-1.));
#1002=DIRECTION('ref_axis',(1.,0.,0.));
#1003=DIRECTION('',(-0.509212491251783,-6.23605447497346E-17,-0.860640830284709));
#1004=DIRECTION('center_axis',(0.,0.,1.));
#1005=DIRECTION('ref_axis',(1.,0.,0.));
#1006=DIRECTION('center_axis',(0.,0.,1.));
#1007=DIRECTION('ref_axis',(1.,0.,0.));
#1008=DIRECTION('',(0.,0.,-1.));
#1009=DIRECTION('center_axis',(0.,0.,-1.));
#1010=DIRECTION('ref_axis',(1.,0.,0.));
#1011=DIRECTION('center_axis',(0.,0.,1.));
#1012=DIRECTION('ref_axis',(1.,0.,0.));
#1013=DIRECTION('center_axis',(0.,0.,-1.));
#1014=DIRECTION('ref_axis',(1.,0.,0.));
#1015=DIRECTION('center_axis',(0.,0.,-1.));
#1016=DIRECTION('ref_axis',(1.,0.,0.));
#1017=DIRECTION('',(-0.509212491251783,-6.23605447497346E-17,-0.860640830284709));
#1018=DIRECTION('center_axis',(0.,0.,1.));
#1019=DIRECTION('ref_axis',(1.,0.,0.));
#1020=DIRECTION('center_axis',(0.,0.,1.));
#1021=DIRECTION('ref_axis',(1.,0.,0.));
#1022=DIRECTION('',(0.,0.,-1.));
#1023=DIRECTION('center_axis',(0.,0.,-1.));
#1024=DIRECTION('ref_axis',(1.,0.,0.));
#1025=DIRECTION('center_axis',(0.,0.,1.));
#1026=DIRECTION('ref_axis',(1.,0.,0.));
#1027=DIRECTION('center_axis',(0.,0.,-1.));
#1028=DIRECTION('ref_axis',(1.,0.,0.));
#1029=DIRECTION('center_axis',(0.,0.,-1.));
#1030=DIRECTION('ref_axis',(1.,0.,0.));
#1031=DIRECTION('',(-0.509212491251785,-6.23605447497348E-17,-0.860640830284708));
#1032=DIRECTION('center_axis',(0.,0.,1.));
#1033=DIRECTION('ref_axis',(1.,0.,0.));
#1034=DIRECTION('center_axis',(0.,0.,1.));
#1035=DIRECTION('ref_axis',(1.,0.,0.));
#1036=DIRECTION('',(0.,0.,-1.));
#1037=DIRECTION('center_axis',(0.,0.,-1.));
#1038=DIRECTION('ref_axis',(1.,0.,0.));
#1039=DIRECTION('center_axis',(0.,0.,1.));
#1040=DIRECTION('ref_axis',(1.,0.,0.));
#1041=DIRECTION('center_axis',(0.,0.,-1.));
#1042=DIRECTION('ref_axis',(1.,0.,0.));
#1043=DIRECTION('center_axis',(0.,0.,-1.));
#1044=DIRECTION('ref_axis',(1.,0.,0.));
#1045=DIRECTION('',(-0.509212491251785,-6.23605447497348E-17,-0.860640830284708));
#1046=DIRECTION('center_axis',(0.,0.,1.));
#1047=DIRECTION('ref_axis',(1.,0.,0.));
#1048=DIRECTION('center_axis',(0.,0.,1.));
#1049=DIRECTION('ref_axis',(1.,0.,0.));
#1050=DIRECTION('',(0.,0.,-1.));
#1051=DIRECTION('center_axis',(0.,0.,-1.));
#1052=DIRECTION('ref_axis',(1.,0.,0.));
#1053=DIRECTION('center_axis',(0.,0.,1.));
#1054=DIRECTION('ref_axis',(1.,0.,0.));
#1055=DIRECTION('center_axis',(0.,0.,-1.));
#1056=DIRECTION('ref_axis',(1.,0.,0.));
#1057=DIRECTION('center_axis',(0.,0.,-1.));
#1058=DIRECTION('ref_axis',(1.,0.,0.));
#1059=DIRECTION('',(-0.509212491251785,-6.23605447497348E-17,-0.860640830284708));
#1060=DIRECTION('center_axis',(0.,0.,1.));
#1061=DIRECTION('ref_axis',(1.,0.,0.));
#1062=DIRECTION('center_axis',(0.,0.,1.));
#1063=DIRECTION('ref_axis',(1.,0.,0.));
#1064=DIRECTION('',(0.,0.,-1.));
#1065=DIRECTION('center_axis',(0.,0.,-1.));
#1066=DIRECTION('ref_axis',(1.,0.,0.));
#1067=DIRECTION('center_axis',(0.,0.,1.));
#1068=DIRECTION('ref_axis',(1.,0.,0.));
#1069=DIRECTION('center_axis',(0.,1.,0.));
#1070=DIRECTION('ref_axis',(1.,0.,0.));
#1071=DIRECTION('',(1.,0.,0.));
#1072=DIRECTION('',(0.,0.,-1.));
#1073=DIRECTION('',(1.,0.,0.));
#1074=DIRECTION('',(0.,0.,-1.));
#1075=DIRECTION('center_axis',(-1.,0.,0.));
#1076=DIRECTION('ref_axis',(0.,1.,0.));
#1077=DIRECTION('',(0.,1.,0.));
#1078=DIRECTION('',(0.,1.,0.));
#1079=DIRECTION('',(0.,0.,-1.));
#1080=DIRECTION('center_axis',(0.,-1.,0.));
#1081=DIRECTION('ref_axis',(-1.,0.,0.));
#1082=DIRECTION('',(-1.,0.,0.));
#1083=DIRECTION('',(-1.,0.,0.));
#1084=DIRECTION('',(0.,0.,-1.));
#1085=DIRECTION('center_axis',(1.,0.,0.));
#1086=DIRECTION('ref_axis',(0.,-1.,0.));
#1087=DIRECTION('',(0.,-1.,0.));
#1088=DIRECTION('',(0.,-1.,0.));
#1089=DIRECTION('center_axis',(0.,0.,-1.));
#1090=DIRECTION('ref_axis',(-1.,0.,0.));
#1091=DIRECTION('center_axis',(0.,0.,-1.));
#1092=DIRECTION('ref_axis',(1.,0.,0.));
#1093=CARTESIAN_POINT('',(0.,0.,0.));
#1094=CARTESIAN_POINT('Origin',(77.25,-10.5,-64.49));
#1095=CARTESIAN_POINT('',(77.25,-10.5,-64.49));
#1096=CARTESIAN_POINT('',(77.25,-10.5,-62.49));
#1097=CARTESIAN_POINT('',(77.25,-10.5,-63.24));
#1098=CARTESIAN_POINT('',(77.25,-12.5,-64.49));
#1099=CARTESIAN_POINT('',(77.25,-10.5,-64.49));
#1100=CARTESIAN_POINT('',(77.25,-12.5,-62.49));
#1101=CARTESIAN_POINT('',(77.25,-12.5,-62.99));
#1102=CARTESIAN_POINT('',(77.25,-10.5,-62.49));
#1103=CARTESIAN_POINT('Origin',(47.25,-10.5,-64.49));
#1104=CARTESIAN_POINT('',(47.25,-10.5,-64.49));
#1105=CARTESIAN_POINT('',(28.875,-10.5,-64.49));
#1106=CARTESIAN_POINT('',(47.25,-12.5,-64.49));
#1107=CARTESIAN_POINT('',(47.25,-10.5,-64.49));
#1108=CARTESIAN_POINT('',(69.75,-12.5,-64.49));
#1109=CARTESIAN_POINT('Origin',(47.25,-10.5,-62.49));
#1110=CARTESIAN_POINT('',(47.25,-10.5,-62.49));
#1111=CARTESIAN_POINT('',(47.25,-10.5,-62.24));
#1112=CARTESIAN_POINT('',(47.25,-12.5,-62.49));
#1113=CARTESIAN_POINT('',(47.25,-10.5,-62.49));
#1114=CARTESIAN_POINT('',(47.25,-12.5,-63.99));
#1115=CARTESIAN_POINT('Origin',(77.25,-10.5,-62.49));
#1116=CARTESIAN_POINT('',(43.875,-10.5,-62.49));
#1117=CARTESIAN_POINT('',(54.75,-12.5,-62.49));
#1118=CARTESIAN_POINT('Origin',(62.25,-12.5,-63.49));
#1119=CARTESIAN_POINT('Origin',(47.25,-73.5,-62.49));
#1120=CARTESIAN_POINT('',(47.25,-73.5,-62.49));
#1121=CARTESIAN_POINT('',(77.25,-73.5,-62.49));
#1122=CARTESIAN_POINT('',(80.625,-73.5,-62.49));
#1123=CARTESIAN_POINT('',(47.25,-71.5,-62.49));
#1124=CARTESIAN_POINT('',(47.25,-73.5,-62.49));
#1125=CARTESIAN_POINT('',(77.25,-71.5,-62.49));
#1126=CARTESIAN_POINT('',(77.25,-71.5,-62.49));
#1127=CARTESIAN_POINT('',(77.25,-73.5,-62.49));
#1128=CARTESIAN_POINT('Origin',(47.25,-73.5,-64.49));
#1129=CARTESIAN_POINT('',(47.25,-73.5,-64.49));
#1130=CARTESIAN_POINT('',(47.25,-73.5,-63.24));
#1131=CARTESIAN_POINT('',(47.25,-71.5,-64.49));
#1132=CARTESIAN_POINT('',(47.25,-73.5,-64.49));
#1133=CARTESIAN_POINT('',(47.25,-71.5,-64.49));
#1134=CARTESIAN_POINT('Origin',(77.25,-73.5,-64.49));
#1135=CARTESIAN_POINT('',(77.25,-73.5,-64.49));
#1136=CARTESIAN_POINT('',(95.625,-73.5,-64.49));
#1137=CARTESIAN_POINT('',(77.25,-71.5,-64.49));
#1138=CARTESIAN_POINT('',(77.25,-73.5,-64.49));
#1139=CARTESIAN_POINT('',(62.25,-71.5,-64.49));
#1140=CARTESIAN_POINT('Origin',(77.25,-73.5,-62.49));
#1141=CARTESIAN_POINT('',(77.25,-73.5,-62.24));
#1142=CARTESIAN_POINT('',(77.25,-71.5,-64.49));
#1143=CARTESIAN_POINT('Origin',(62.25,-71.5,-63.49));
#1144=CARTESIAN_POINT('Origin',(114.,-27.0000006258488,-64.5000005662441));
#1145=CARTESIAN_POINT('',(114.,-27.0000006258488,-64.5000005662441));
#1146=CARTESIAN_POINT('',(114.,-57.0000006258488,-64.5000005662441));
#1147=CARTESIAN_POINT('',(114.,-18.7500003129244,-64.5000005662441));
#1148=CARTESIAN_POINT('',(112.,-27.0000006258488,-64.5000005662441));
#1149=CARTESIAN_POINT('',(114.,-27.0000006258488,-64.5000005662441));
#1150=CARTESIAN_POINT('',(112.,-57.0000006258488,-64.5000005662441));
#1151=CARTESIAN_POINT('',(112.,-49.5000006258488,-64.5000005662441));
#1152=CARTESIAN_POINT('',(114.,-57.0000006258488,-64.5000005662441));
#1153=CARTESIAN_POINT('Origin',(114.,-27.0000006258488,-62.5000005662441));
#1154=CARTESIAN_POINT('',(114.,-27.0000006258488,-62.5000005662441));
#1155=CARTESIAN_POINT('',(114.,-27.0000006258488,-62.2450002831221));
#1156=CARTESIAN_POINT('',(112.,-27.0000006258488,-62.5000005662441));
#1157=CARTESIAN_POINT('',(114.,-27.0000006258488,-62.5000005662441));
#1158=CARTESIAN_POINT('',(112.,-27.0000006258488,-64.0000005662441));
#1159=CARTESIAN_POINT('Origin',(114.,-57.0000006258488,-62.5000005662441));
#1160=CARTESIAN_POINT('',(114.,-57.0000006258488,-62.5000005662441));
#1161=CARTESIAN_POINT('',(114.,-33.7500003129244,-62.5000005662441));
#1162=CARTESIAN_POINT('',(112.,-57.0000006258488,-62.5000005662441));
#1163=CARTESIAN_POINT('',(114.,-57.0000006258488,-62.5000005662441));
#1164=CARTESIAN_POINT('',(112.,-34.5000006258488,-62.5000005662441));
#1165=CARTESIAN_POINT('Origin',(114.,-57.0000006258488,-64.5000005662441));
#1166=CARTESIAN_POINT('',(114.,-57.0000006258488,-63.2450002831221));
#1167=CARTESIAN_POINT('',(112.,-57.0000006258488,-63.0000005662441));
#1168=CARTESIAN_POINT('Origin',(112.,-42.0000006258488,-63.5000005662441));
#1169=CARTESIAN_POINT('Origin',(10.5,-57.0000006258488,-62.5000005662441));
#1170=CARTESIAN_POINT('',(10.5,-57.0000006258488,-62.5000005662441));
#1171=CARTESIAN_POINT('',(10.5,-57.0000006258488,-64.5000005662441));
#1172=CARTESIAN_POINT('',(10.5,-57.0000006258488,-62.2450002831221));
#1173=CARTESIAN_POINT('',(12.5,-57.0000006258488,-62.5000005662441));
#1174=CARTESIAN_POINT('',(10.5,-57.0000006258488,-62.5000005662441));
#1175=CARTESIAN_POINT('',(12.5,-57.0000006258488,-64.5000005662441));
#1176=CARTESIAN_POINT('',(12.5,-57.0000006258488,-62.5000005662441));
#1177=CARTESIAN_POINT('',(10.5,-57.0000006258488,-64.5000005662441));
#1178=CARTESIAN_POINT('Origin',(10.5,-27.0000006258488,-62.5000005662441));
#1179=CARTESIAN_POINT('',(10.5,-27.0000006258488,-62.5000005662441));
#1180=CARTESIAN_POINT('',(10.5,-50.2500003129244,-62.5000005662441));
#1181=CARTESIAN_POINT('',(12.5,-27.0000006258488,-62.5000005662441));
#1182=CARTESIAN_POINT('',(10.5,-27.0000006258488,-62.5000005662441));
#1183=CARTESIAN_POINT('',(12.5,-27.0000006258488,-62.5000005662441));
#1184=CARTESIAN_POINT('Origin',(10.5,-27.0000006258488,-64.5000005662441));
#1185=CARTESIAN_POINT('',(10.5,-27.0000006258488,-64.5000005662441));
#1186=CARTESIAN_POINT('',(10.5,-27.0000006258488,-63.2450002831221));
#1187=CARTESIAN_POINT('',(12.5,-27.0000006258488,-64.5000005662441));
#1188=CARTESIAN_POINT('',(10.5,-27.0000006258488,-64.5000005662441));
#1189=CARTESIAN_POINT('',(12.5,-27.0000006258488,-64.5000005662441));
#1190=CARTESIAN_POINT('Origin',(10.5,-57.0000006258488,-64.5000005662441));
#1191=CARTESIAN_POINT('',(10.5,-65.2500003129244,-64.5000005662441));
#1192=CARTESIAN_POINT('',(12.5,-57.0000006258488,-64.5000005662441));
#1193=CARTESIAN_POINT('Origin',(12.5,-42.0000006258488,-63.5000005662441));
#1194=CARTESIAN_POINT('Origin',(62.25,-70.75,-58.59));
#1195=CARTESIAN_POINT('',(62.21,-70.75,-57.99));
#1196=CARTESIAN_POINT('Origin',(62.25,-70.75,-57.99));
#1197=CARTESIAN_POINT('',(61.5,-70.75,-59.19));
#1198=CARTESIAN_POINT('',(61.855,-70.75,-58.59));
#1199=CARTESIAN_POINT('Origin',(62.25,-70.75,-59.19));
#1200=CARTESIAN_POINT('Origin',(62.25,-70.75,-61.99));
#1201=CARTESIAN_POINT('',(61.5,-70.75,-61.99));
#1202=CARTESIAN_POINT('',(61.5,-70.75,-61.99));
#1203=CARTESIAN_POINT('Origin',(62.25,-70.75,-61.99));
#1204=CARTESIAN_POINT('Origin',(62.25,-41.375000089407,-57.99));
#1205=CARTESIAN_POINT('Origin',(111.25,-70.75,-58.59));
#1206=CARTESIAN_POINT('',(111.21,-70.75,-57.99));
#1207=CARTESIAN_POINT('Origin',(111.25,-70.75,-57.99));
#1208=CARTESIAN_POINT('',(110.5,-70.75,-59.19));
#1209=CARTESIAN_POINT('',(110.855,-70.75,-58.59));
#1210=CARTESIAN_POINT('Origin',(111.25,-70.75,-59.19));
#1211=CARTESIAN_POINT('Origin',(111.25,-70.75,-61.99));
#1212=CARTESIAN_POINT('',(110.5,-70.75,-61.99));
#1213=CARTESIAN_POINT('',(110.5,-70.75,-61.99));
#1214=CARTESIAN_POINT('Origin',(111.25,-70.75,-61.99));
#1215=CARTESIAN_POINT('Origin',(62.25,-41.375000089407,-57.99));
#1216=CARTESIAN_POINT('Origin',(111.25,-42.,-58.59));
#1217=CARTESIAN_POINT('',(111.21,-42.,-57.99));
#1218=CARTESIAN_POINT('Origin',(111.25,-42.,-57.99));
#1219=CARTESIAN_POINT('',(110.5,-42.,-59.19));
#1220=CARTESIAN_POINT('',(110.855,-42.,-58.59));
#1221=CARTESIAN_POINT('Origin',(111.25,-42.,-59.19));
#1222=CARTESIAN_POINT('Origin',(111.25,-42.,-61.99));
#1223=CARTESIAN_POINT('',(110.5,-42.,-61.99));
#1224=CARTESIAN_POINT('',(110.5,-42.,-61.99));
#1225=CARTESIAN_POINT('Origin',(111.25,-42.,-61.99));
#1226=CARTESIAN_POINT('Origin',(62.25,-41.375000089407,-57.99));
#1227=CARTESIAN_POINT('Origin',(111.25,-13.25,-58.59));
#1228=CARTESIAN_POINT('',(111.21,-13.25,-57.99));
#1229=CARTESIAN_POINT('Origin',(111.25,-13.25,-57.99));
#1230=CARTESIAN_POINT('',(110.5,-13.25,-59.19));
#1231=CARTESIAN_POINT('',(110.855,-13.25,-58.59));
#1232=CARTESIAN_POINT('Origin',(111.25,-13.25,-59.19));
#1233=CARTESIAN_POINT('Origin',(111.25,-13.25,-61.99));
#1234=CARTESIAN_POINT('',(110.5,-13.25,-61.99));
#1235=CARTESIAN_POINT('',(110.5,-13.25,-61.99));
#1236=CARTESIAN_POINT('Origin',(111.25,-13.25,-61.99));
#1237=CARTESIAN_POINT('Origin',(62.25,-41.375000089407,-57.99));
#1238=CARTESIAN_POINT('Origin',(60.0000008940697,-12.0000001788139,-58.59));
#1239=CARTESIAN_POINT('',(59.9600008940697,-12.0000001788139,-57.99));
#1240=CARTESIAN_POINT('Origin',(60.0000008940697,-12.0000001788139,-57.99));
#1241=CARTESIAN_POINT('',(59.2500008940697,-12.0000001788139,-59.19));
#1242=CARTESIAN_POINT('',(59.6050008940697,-12.0000001788139,-58.59));
#1243=CARTESIAN_POINT('Origin',(60.0000008940697,-12.0000001788139,-59.19));
#1244=CARTESIAN_POINT('Origin',(60.0000008940697,-12.0000001788139,-61.99));
#1245=CARTESIAN_POINT('',(59.2500008940697,-12.0000001788139,-61.99));
#1246=CARTESIAN_POINT('',(59.2500008940697,-12.0000001788139,-61.99));
#1247=CARTESIAN_POINT('Origin',(60.0000008940697,-12.0000001788139,-61.99));
#1248=CARTESIAN_POINT('Origin',(62.25,-41.375000089407,-57.99));
#1249=CARTESIAN_POINT('Origin',(13.25,-13.25,-58.59));
#1250=CARTESIAN_POINT('',(13.21,-13.25,-57.99));
#1251=CARTESIAN_POINT('Origin',(13.25,-13.25,-57.99));
#1252=CARTESIAN_POINT('',(12.5,-13.25,-59.19));
#1253=CARTESIAN_POINT('',(12.855,-13.25,-58.59));
#1254=CARTESIAN_POINT('Origin',(13.25,-13.25,-59.19));
#1255=CARTESIAN_POINT('Origin',(13.25,-13.25,-61.99));
#1256=CARTESIAN_POINT('',(12.5,-13.25,-61.99));
#1257=CARTESIAN_POINT('',(12.5,-13.25,-61.99));
#1258=CARTESIAN_POINT('Origin',(13.25,-13.25,-61.99));
#1259=CARTESIAN_POINT('Origin',(62.25,-41.375000089407,-57.99));
#1260=CARTESIAN_POINT('Origin',(13.25,-70.75,-58.59));
#1261=CARTESIAN_POINT('',(13.21,-70.75,-57.99));
#1262=CARTESIAN_POINT('Origin',(13.25,-70.75,-57.99));
#1263=CARTESIAN_POINT('',(12.5,-70.75,-59.19));
#1264=CARTESIAN_POINT('',(12.855,-70.75,-58.59));
#1265=CARTESIAN_POINT('Origin',(13.25,-70.75,-59.19));
#1266=CARTESIAN_POINT('Origin',(13.25,-70.75,-61.99));
#1267=CARTESIAN_POINT('',(12.5,-70.75,-61.99));
#1268=CARTESIAN_POINT('',(12.5,-70.75,-61.99));
#1269=CARTESIAN_POINT('Origin',(13.25,-70.75,-61.99));
#1270=CARTESIAN_POINT('Origin',(62.25,-41.375000089407,-57.99));
#1271=CARTESIAN_POINT('Origin',(13.25,-42.,-58.59));
#1272=CARTESIAN_POINT('',(13.21,-42.,-57.99));
#1273=CARTESIAN_POINT('Origin',(13.25,-42.,-57.99));
#1274=CARTESIAN_POINT('',(12.5,-42.,-59.19));
#1275=CARTESIAN_POINT('',(12.855,-42.,-58.59));
#1276=CARTESIAN_POINT('Origin',(13.25,-42.,-59.19));
#1277=CARTESIAN_POINT('Origin',(13.25,-42.,-61.99));
#1278=CARTESIAN_POINT('',(12.5,-42.,-61.99));
#1279=CARTESIAN_POINT('',(12.5,-42.,-61.99));
#1280=CARTESIAN_POINT('Origin',(13.25,-42.,-61.99));
#1281=CARTESIAN_POINT('Origin',(62.25,-41.375000089407,-57.99));
#1282=CARTESIAN_POINT('Origin',(10.5,-10.5,-61.99));
#1283=CARTESIAN_POINT('',(10.5,-10.5,-61.99));
#1284=CARTESIAN_POINT('',(114.,-10.5,-61.99));
#1285=CARTESIAN_POINT('',(10.5,-10.5,-61.99));
#1286=CARTESIAN_POINT('',(114.,-10.5,-64.99));
#1287=CARTESIAN_POINT('',(114.,-10.5,-61.99));
#1288=CARTESIAN_POINT('',(10.5,-10.5,-64.99));
#1289=CARTESIAN_POINT('',(10.5,-10.5,-64.99));
#1290=CARTESIAN_POINT('',(10.5,-10.5,-61.99));
#1291=CARTESIAN_POINT('Origin',(10.5,-73.5,-61.99));
#1292=CARTESIAN_POINT('',(10.5,-73.5,-61.99));
#1293=CARTESIAN_POINT('',(10.5,-73.5,-61.99));
#1294=CARTESIAN_POINT('',(10.5,-73.5,-64.99));
#1295=CARTESIAN_POINT('',(10.5,-73.5,-64.99));
#1296=CARTESIAN_POINT('',(10.5,-73.5,-61.99));
#1297=CARTESIAN_POINT('Origin',(114.,-73.5,-61.99));
#1298=CARTESIAN_POINT('',(114.,-73.5,-61.99));
#1299=CARTESIAN_POINT('',(114.,-73.5,-61.99));
#1300=CARTESIAN_POINT('',(114.,-73.5,-64.99));
#1301=CARTESIAN_POINT('',(114.,-73.5,-64.99));
#1302=CARTESIAN_POINT('',(114.,-73.5,-61.99));
#1303=CARTESIAN_POINT('Origin',(114.,-10.5,-61.99));
#1304=CARTESIAN_POINT('',(114.,-10.5,-61.99));
#1305=CARTESIAN_POINT('',(114.,-10.5,-64.99));
#1306=CARTESIAN_POINT('Origin',(62.25,-42.,-64.99));
#1307=CARTESIAN_POINT('Origin',(62.25,-42.,-61.99));
#1308=UNCERTAINTY_MEASURE_WITH_UNIT(LENGTH_MEASURE(0.01),#1312,
'DISTANCE_ACCURACY_VALUE',
'Maximum model space distance between geometric entities at asserted c
onnectivities');
#1309=UNCERTAINTY_MEASURE_WITH_UNIT(LENGTH_MEASURE(0.01),#1312,
'DISTANCE_ACCURACY_VALUE',
'Maximum model space distance between geometric entities at asserted c
onnectivities');
#1310=(
GEOMETRIC_REPRESENTATION_CONTEXT(3)
GLOBAL_UNCERTAINTY_ASSIGNED_CONTEXT((#1308))
GLOBAL_UNIT_ASSIGNED_CONTEXT((#1312,#1314,#1315))
REPRESENTATION_CONTEXT('','3D')
);
#1311=(
GEOMETRIC_REPRESENTATION_CONTEXT(3)
GLOBAL_UNCERTAINTY_ASSIGNED_CONTEXT((#1309))
GLOBAL_UNIT_ASSIGNED_CONTEXT((#1312,#1314,#1315))
REPRESENTATION_CONTEXT('','3D')
);
#1312=(
LENGTH_UNIT()
NAMED_UNIT(*)
SI_UNIT(.MILLI.,.METRE.)
);
#1313=(
LENGTH_UNIT()
NAMED_UNIT(*)
SI_UNIT($,.METRE.)
);
#1314=(
NAMED_UNIT(*)
PLANE_ANGLE_UNIT()
SI_UNIT($,.RADIAN.)
);
#1315=(
NAMED_UNIT(*)
SI_UNIT($,.STERADIAN.)
SOLID_ANGLE_UNIT()
);
#1316=SHAPE_DEFINITION_REPRESENTATION(#1317,#1318);
#1317=PRODUCT_DEFINITION_SHAPE('',$,#1320);
#1318=SHAPE_REPRESENTATION('',(#792),#1310);
#1319=PRODUCT_DEFINITION_CONTEXT('part definition',#1324,'design');
#1320=PRODUCT_DEFINITION('2026-09-28-19-06-31-672','PANEL',#1321,#1319);
#1321=PRODUCT_DEFINITION_FORMATION('',$,#1326);
#1322=PRODUCT_RELATED_PRODUCT_CATEGORY('PANEL','PANEL',(#1326));
#1323=APPLICATION_PROTOCOL_DEFINITION('international standard',
'automotive_design',2009,#1324);
#1324=APPLICATION_CONTEXT(
'Core Data for Automotive Mechanical Design Process');
#1325=PRODUCT_CONTEXT('part definition',#1324,'mechanical');
#1326=PRODUCT('2026-09-28-19-06-31-672','PANEL',$,(#1325));
#1327=PRESENTATION_STYLE_ASSIGNMENT((#1329));
#1328=PRESENTATION_STYLE_ASSIGNMENT((#1330));
#1329=SURFACE_STYLE_USAGE(.BOTH.,#1331);
#1330=SURFACE_STYLE_USAGE(.BOTH.,#1332);
#1331=SURFACE_SIDE_STYLE('',(#1333));
#1332=SURFACE_SIDE_STYLE('',(#1334));
#1333=SURFACE_STYLE_FILL_AREA(#1335);
#1334=SURFACE_STYLE_FILL_AREA(#1336);
#1335=FILL_AREA_STYLE('Steel - Satin',(#1337));
#1336=FILL_AREA_STYLE('Opaque(210,209,199)',(#1338));
#1337=FILL_AREA_STYLE_COLOUR('Steel - Satin',#1339);
#1338=FILL_AREA_STYLE_COLOUR('Opaque(210,209,199)',#1340);
#1339=COLOUR_RGB('Steel - Satin',0.627450980392157,0.627450980392157,0.627450980392157);
#1340=COLOUR_RGB('Opaque(210,209,199)',1.,0.,0.);
ENDSEC;
END-ISO-10303-21;
